<mxfile host="app.diagrams.net" agent="Mozilla/5.0 (Macintosh; Intel Mac OS X 10_15_7) AppleWebKit/537.36 (KHTML, like Gecko) Chrome/133.0.0.0 Safari/537.36" version="26.0.10">
  <diagram name="第 1 页" id="QElRUDR-cV3jDJdq3RIu">
    <mxGraphModel grid="1" page="1" gridSize="10" guides="1" tooltips="1" connect="1" arrows="1" fold="1" pageScale="1" pageWidth="827" pageHeight="1169" math="0" shadow="0">
      <root>
        <mxCell id="0" />
        <mxCell id="1" parent="0" />
        <mxCell id="wi1ghn_I1hY8h-wvtkzA-1" value="Customer" style="swimlane;childLayout=stackLayout;horizontal=1;startSize=50;horizontalStack=0;rounded=0;fontSize=14;fontStyle=0;strokeWidth=2;resizeParent=0;resizeLast=1;shadow=0;dashed=0;align=center;arcSize=4;whiteSpace=wrap;html=1;fillColor=#d5e8d4;strokeColor=#82b366;" vertex="1" parent="1">
          <mxGeometry x="398.8" y="280" width="160" height="140" as="geometry" />
        </mxCell>
        <mxCell id="wi1ghn_I1hY8h-wvtkzA-2" value="CustomerId&lt;div&gt;CustomerName&lt;/div&gt;&lt;div&gt;PhoneNumber&lt;/div&gt;&lt;div&gt;email&lt;/div&gt;&lt;div&gt;password&lt;/div&gt;" style="align=left;strokeColor=light-dark(#000000, #996500);fillColor=none;spacingLeft=4;fontSize=12;verticalAlign=top;resizable=0;rotatable=0;part=1;html=1;" vertex="1" parent="wi1ghn_I1hY8h-wvtkzA-1">
          <mxGeometry y="50" width="160" height="90" as="geometry" />
        </mxCell>
        <mxCell id="Ly-DDUZTZc76eZcosB0O-18" value="Restaurants" style="swimlane;childLayout=stackLayout;horizontal=1;startSize=50;horizontalStack=0;rounded=0;fontSize=14;fontStyle=0;strokeWidth=2;resizeParent=0;resizeLast=1;shadow=0;dashed=0;align=center;arcSize=4;whiteSpace=wrap;html=1;" vertex="1" parent="1">
          <mxGeometry x="1398.8" y="720" width="160" height="140" as="geometry" />
        </mxCell>
        <mxCell id="Ly-DDUZTZc76eZcosB0O-19" value="&lt;span id=&quot;docs-internal-guid-ffcf9eb2-7fff-2c6b-6e69-587edfbbbb3b&quot;&gt;&lt;span style=&quot;font-size: 11pt; font-family: Arial, sans-serif; background-color: transparent; font-variant-numeric: normal; font-variant-east-asian: normal; font-variant-alternates: normal; font-variant-position: normal; font-variant-emoji: normal; vertical-align: baseline; white-space: pre-wrap;&quot;&gt;RestaurantID&lt;/span&gt;&lt;/span&gt;&lt;br&gt;&lt;div&gt;Name&lt;/div&gt;&lt;div&gt;Address&lt;/div&gt;&lt;div&gt;Rating&lt;/div&gt;&lt;div&gt;CuisineType&lt;/div&gt;" style="align=left;strokeColor=none;fillColor=none;spacingLeft=4;fontSize=12;verticalAlign=top;resizable=0;rotatable=0;part=1;html=1;" vertex="1" parent="Ly-DDUZTZc76eZcosB0O-18">
          <mxGeometry y="50" width="160" height="90" as="geometry" />
        </mxCell>
        <mxCell id="Ly-DDUZTZc76eZcosB0O-20" value="Menu Item" style="swimlane;childLayout=stackLayout;horizontal=1;startSize=50;horizontalStack=0;rounded=0;fontSize=14;fontStyle=0;strokeWidth=2;resizeParent=0;resizeLast=1;shadow=0;dashed=0;align=center;arcSize=4;whiteSpace=wrap;html=1;" vertex="1" parent="1">
          <mxGeometry x="1398.8" y="280" width="160" height="140" as="geometry" />
        </mxCell>
        <mxCell id="Ly-DDUZTZc76eZcosB0O-21" value="MenuItemID&lt;div&gt;Name&lt;/div&gt;&lt;div&gt;Description&lt;/div&gt;&lt;div&gt;Price&lt;/div&gt;&lt;div&gt;Available&lt;/div&gt;&lt;div&gt;&lt;br&gt;&lt;/div&gt;&lt;div&gt;&lt;br&gt;&lt;/div&gt;" style="align=left;strokeColor=none;fillColor=none;spacingLeft=4;fontSize=12;verticalAlign=top;resizable=0;rotatable=0;part=1;html=1;" vertex="1" parent="Ly-DDUZTZc76eZcosB0O-20">
          <mxGeometry y="50" width="160" height="90" as="geometry" />
        </mxCell>
        <mxCell id="wi1ghn_I1hY8h-wvtkzA-3" value="Order" style="swimlane;childLayout=stackLayout;horizontal=1;startSize=50;horizontalStack=0;rounded=1;fontSize=14;fontStyle=0;strokeWidth=2;resizeParent=0;resizeLast=1;shadow=0;dashed=0;align=center;arcSize=4;whiteSpace=wrap;html=1;fillColor=#d5e8d4;strokeColor=#82b366;" vertex="1" parent="1">
          <mxGeometry x="814.8" y="280" width="160" height="130" as="geometry" />
        </mxCell>
        <mxCell id="wi1ghn_I1hY8h-wvtkzA-4" value="OrderId&lt;div&gt;Total_amount&lt;/div&gt;&lt;div&gt;Status&lt;/div&gt;&lt;div&gt;OrderDate&lt;/div&gt;&lt;div&gt;DeliveryType&lt;/div&gt;" style="align=left;strokeColor=light-dark(#000000, #996500);fillColor=none;spacingLeft=4;fontSize=12;verticalAlign=top;resizable=0;rotatable=0;part=1;html=1;" vertex="1" parent="wi1ghn_I1hY8h-wvtkzA-3">
          <mxGeometry y="50" width="160" height="80" as="geometry" />
        </mxCell>
        <mxCell id="wi1ghn_I1hY8h-wvtkzA-5" value="Payment Method" style="swimlane;childLayout=stackLayout;horizontal=1;startSize=50;horizontalStack=0;rounded=0;fontSize=14;fontStyle=0;strokeWidth=2;resizeParent=0;resizeLast=1;shadow=0;dashed=0;align=center;arcSize=4;whiteSpace=wrap;html=1;" vertex="1" parent="1">
          <mxGeometry x="620" y="518" width="160" height="120" as="geometry" />
        </mxCell>
        <mxCell id="wi1ghn_I1hY8h-wvtkzA-6" value="PaymentID&lt;div&gt;Card Details (card number,&amp;nbsp;&lt;/div&gt;&lt;div&gt;exp date)&lt;/div&gt;&lt;div&gt;PaymentType&lt;/div&gt;&lt;div&gt;&lt;br&gt;&lt;/div&gt;" style="align=left;strokeColor=none;fillColor=none;spacingLeft=4;fontSize=12;verticalAlign=top;resizable=0;rotatable=0;part=1;html=1;" vertex="1" parent="wi1ghn_I1hY8h-wvtkzA-5">
          <mxGeometry y="50" width="160" height="70" as="geometry" />
        </mxCell>
        <mxCell id="wi1ghn_I1hY8h-wvtkzA-7" value="Driver" style="swimlane;childLayout=stackLayout;horizontal=1;startSize=50;horizontalStack=0;rounded=0;fontSize=14;fontStyle=0;strokeWidth=2;resizeParent=0;resizeLast=1;shadow=0;dashed=0;align=center;arcSize=4;whiteSpace=wrap;html=1;" vertex="1" parent="1">
          <mxGeometry x="814.8" y="-200" width="160" height="120" as="geometry" />
        </mxCell>
        <mxCell id="wi1ghn_I1hY8h-wvtkzA-8" value="DriverID&lt;div&gt;DriverName&lt;/div&gt;&lt;div&gt;phoneNumber&lt;/div&gt;&lt;div&gt;vehicle_info&amp;nbsp;&lt;/div&gt;" style="align=left;strokeColor=none;fillColor=none;spacingLeft=4;fontSize=12;verticalAlign=top;resizable=0;rotatable=0;part=1;html=1;" vertex="1" parent="wi1ghn_I1hY8h-wvtkzA-7">
          <mxGeometry y="50" width="160" height="70" as="geometry" />
        </mxCell>
        <mxCell id="wi1ghn_I1hY8h-wvtkzA-9" value="Address" style="swimlane;childLayout=stackLayout;horizontal=1;startSize=50;horizontalStack=0;rounded=0;fontSize=14;fontStyle=0;strokeWidth=2;resizeParent=0;resizeLast=1;shadow=0;dashed=0;align=center;arcSize=4;whiteSpace=wrap;html=1;" vertex="1" parent="1">
          <mxGeometry x="398.8" y="20" width="160" height="140" as="geometry" />
        </mxCell>
        <mxCell id="wi1ghn_I1hY8h-wvtkzA-10" value="StreetNumber&lt;div&gt;StreetName&lt;/div&gt;&lt;div&gt;City&lt;/div&gt;&lt;div&gt;State&lt;/div&gt;&lt;div&gt;ZIP&lt;br&gt;&lt;div&gt;&lt;div&gt;&lt;br&gt;&lt;/div&gt;&lt;/div&gt;&lt;/div&gt;" style="align=left;strokeColor=none;fillColor=none;spacingLeft=4;fontSize=12;verticalAlign=top;resizable=0;rotatable=0;part=1;html=1;" vertex="1" parent="wi1ghn_I1hY8h-wvtkzA-9">
          <mxGeometry y="50" width="160" height="90" as="geometry" />
        </mxCell>
        <mxCell id="wi1ghn_I1hY8h-wvtkzA-11" value="Review" style="swimlane;childLayout=stackLayout;horizontal=1;startSize=50;horizontalStack=0;rounded=1;fontSize=14;fontStyle=0;strokeWidth=2;resizeParent=0;resizeLast=1;shadow=0;dashed=0;align=center;arcSize=4;whiteSpace=wrap;html=1;fillColor=#f8cecc;strokeColor=#b85450;" vertex="1" parent="1">
          <mxGeometry x="397.6" y="720" width="160" height="120" as="geometry" />
        </mxCell>
        <mxCell id="wi1ghn_I1hY8h-wvtkzA-12" value="ReviewID&lt;div&gt;Rating&lt;/div&gt;&lt;div&gt;Comment&lt;/div&gt;&lt;div&gt;ReviewDate&lt;/div&gt;" style="align=left;strokeColor=none;fillColor=none;spacingLeft=4;fontSize=12;verticalAlign=top;resizable=0;rotatable=0;part=1;html=1;" vertex="1" parent="wi1ghn_I1hY8h-wvtkzA-11">
          <mxGeometry y="50" width="160" height="70" as="geometry" />
        </mxCell>
        <mxCell id="Ly-DDUZTZc76eZcosB0O-31" value="Delivery" style="swimlane;childLayout=stackLayout;horizontal=1;startSize=50;horizontalStack=0;rounded=1;fontSize=14;fontStyle=0;strokeWidth=2;resizeParent=0;resizeLast=1;shadow=0;dashed=0;align=center;arcSize=4;whiteSpace=wrap;html=1;" vertex="1" parent="1">
          <mxGeometry x="814.8" y="20" width="160" height="120" as="geometry" />
        </mxCell>
        <mxCell id="Ly-DDUZTZc76eZcosB0O-32" value="Delivery Status&lt;div&gt;Pickup Time&lt;/div&gt;&lt;div&gt;Arrival Time&lt;br&gt;&lt;div&gt;&lt;br&gt;&lt;/div&gt;&lt;/div&gt;" style="align=left;strokeColor=none;fillColor=none;spacingLeft=4;fontSize=12;verticalAlign=top;resizable=0;rotatable=0;part=1;html=1;" vertex="1" parent="Ly-DDUZTZc76eZcosB0O-31">
          <mxGeometry y="50" width="160" height="70" as="geometry" />
        </mxCell>
        <mxCell id="Ly-DDUZTZc76eZcosB0O-34" value="" style="edgeStyle=entityRelationEdgeStyle;fontSize=12;html=1;endArrow=ERzeroToMany;startArrow=ERmandOne;rounded=0;entryX=0;entryY=0.25;entryDx=0;entryDy=0;" edge="1" parent="1" target="wi1ghn_I1hY8h-wvtkzA-4">
          <mxGeometry width="100" height="100" relative="1" as="geometry">
            <mxPoint x="558.8" y="348" as="sourcePoint" />
            <mxPoint x="808.8" y="350" as="targetPoint" />
          </mxGeometry>
        </mxCell>
        <mxCell id="Ly-DDUZTZc76eZcosB0O-40" value="" style="fontSize=12;html=1;endArrow=ERzeroToMany;startArrow=ERmandOne;rounded=0;entryX=0.5;entryY=1;entryDx=0;entryDy=0;exitX=0.5;exitY=0;exitDx=0;exitDy=0;" edge="1" parent="1" source="wi1ghn_I1hY8h-wvtkzA-1" target="wi1ghn_I1hY8h-wvtkzA-10">
          <mxGeometry width="100" height="100" relative="1" as="geometry">
            <mxPoint x="248.79999999999998" y="430" as="sourcePoint" />
            <mxPoint x="401.76000000000005" y="470" as="targetPoint" />
          </mxGeometry>
        </mxCell>
        <mxCell id="Ly-DDUZTZc76eZcosB0O-41" value="" style="fontSize=12;html=1;endArrow=ERzeroToMany;startArrow=ERmandOne;rounded=0;exitX=0.75;exitY=1;exitDx=0;exitDy=0;edgeStyle=orthogonalEdgeStyle;entryX=0;entryY=0.25;entryDx=0;entryDy=0;" edge="1" parent="1" source="wi1ghn_I1hY8h-wvtkzA-2" target="wi1ghn_I1hY8h-wvtkzA-5">
          <mxGeometry width="100" height="100" relative="1" as="geometry">
            <mxPoint x="510.00000000000017" y="447.79" as="sourcePoint" />
            <mxPoint x="571.2" y="618.29" as="targetPoint" />
          </mxGeometry>
        </mxCell>
        <mxCell id="Ly-DDUZTZc76eZcosB0O-42" value="" style="fontSize=12;html=1;endArrow=ERzeroToMany;startArrow=ERzeroToOne;rounded=0;exitX=0.463;exitY=1.014;exitDx=0;exitDy=0;exitPerimeter=0;entryX=0.456;entryY=-0.008;entryDx=0;entryDy=0;entryPerimeter=0;" edge="1" parent="1" source="Ly-DDUZTZc76eZcosB0O-32" target="wi1ghn_I1hY8h-wvtkzA-3">
          <mxGeometry width="100" height="100" relative="1" as="geometry">
            <mxPoint x="898.8" y="270" as="sourcePoint" />
            <mxPoint x="998.8" y="170" as="targetPoint" />
          </mxGeometry>
        </mxCell>
        <mxCell id="Ly-DDUZTZc76eZcosB0O-45" value="Order Item" style="swimlane;childLayout=stackLayout;horizontal=1;startSize=50;horizontalStack=0;rounded=0;fontSize=14;fontStyle=0;strokeWidth=2;resizeParent=0;resizeLast=1;shadow=0;dashed=0;align=center;arcSize=4;whiteSpace=wrap;html=1;fillColor=#d5e8d4;strokeColor=#82b366;" vertex="1" parent="1">
          <mxGeometry x="1118.8" y="280" width="160" height="120" as="geometry" />
        </mxCell>
        <mxCell id="Ly-DDUZTZc76eZcosB0O-46" value="OrderItemID&lt;div&gt;Quantity&lt;/div&gt;&lt;div&gt;UnitPrice&lt;/div&gt;&lt;div&gt;notes&lt;/div&gt;" style="align=left;strokeColor=light-dark(#000000, #996500);fillColor=none;spacingLeft=4;fontSize=12;verticalAlign=top;resizable=0;rotatable=0;part=1;html=1;" vertex="1" parent="Ly-DDUZTZc76eZcosB0O-45">
          <mxGeometry y="50" width="160" height="70" as="geometry" />
        </mxCell>
        <mxCell id="V0rouqVMcieKD_WNlHqg-1" value="" style="fontSize=12;html=1;endArrow=ERzeroToOne;startArrow=ERmandOne;rounded=0;entryX=0.425;entryY=1;entryDx=0;entryDy=0;entryPerimeter=0;exitX=1;exitY=0.25;exitDx=0;exitDy=0;edgeStyle=orthogonalEdgeStyle;" edge="1" parent="1" source="wi1ghn_I1hY8h-wvtkzA-6" target="wi1ghn_I1hY8h-wvtkzA-4">
          <mxGeometry width="100" height="100" relative="1" as="geometry">
            <mxPoint x="858.8" y="580" as="sourcePoint" />
            <mxPoint x="958.8" y="480" as="targetPoint" />
          </mxGeometry>
        </mxCell>
        <mxCell id="V0rouqVMcieKD_WNlHqg-4" value="" style="fontSize=12;html=1;endArrow=ERzeroToMany;startArrow=ERmandOne;rounded=0;entryX=0.401;entryY=-0.008;entryDx=0;entryDy=0;entryPerimeter=0;exitX=0.389;exitY=0.989;exitDx=0;exitDy=0;exitPerimeter=0;" edge="1" parent="1" source="wi1ghn_I1hY8h-wvtkzA-2" target="wi1ghn_I1hY8h-wvtkzA-11">
          <mxGeometry width="100" height="100" relative="1" as="geometry">
            <mxPoint x="460" y="420" as="sourcePoint" />
            <mxPoint x="479.79999999999995" y="537" as="targetPoint" />
          </mxGeometry>
        </mxCell>
        <mxCell id="V0rouqVMcieKD_WNlHqg-5" value="" style="fontSize=12;html=1;endArrow=ERzeroToMany;startArrow=ERmandOne;rounded=0;entryX=1;entryY=0.25;entryDx=0;entryDy=0;exitX=0;exitY=0.25;exitDx=0;exitDy=0;" edge="1" parent="1" source="Ly-DDUZTZc76eZcosB0O-19" target="wi1ghn_I1hY8h-wvtkzA-12">
          <mxGeometry width="100" height="100" relative="1" as="geometry">
            <mxPoint x="858.8" y="670" as="sourcePoint" />
            <mxPoint x="859.8" y="877" as="targetPoint" />
          </mxGeometry>
        </mxCell>
        <mxCell id="V0rouqVMcieKD_WNlHqg-6" value="" style="fontSize=12;html=1;endArrow=ERoneToMany;startArrow=ERmandOne;rounded=0;exitX=0.45;exitY=-0.008;exitDx=0;exitDy=0;exitPerimeter=0;entryX=0.451;entryY=1;entryDx=0;entryDy=0;entryPerimeter=0;" edge="1" parent="1" source="Ly-DDUZTZc76eZcosB0O-18" target="V0rouqVMcieKD_WNlHqg-15">
          <mxGeometry width="100" height="100" relative="1" as="geometry">
            <mxPoint x="1450" y="580" as="sourcePoint" />
            <mxPoint x="1400" y="630" as="targetPoint" />
          </mxGeometry>
        </mxCell>
        <mxCell id="V0rouqVMcieKD_WNlHqg-8" value="" style="edgeStyle=orthogonalEdgeStyle;fontSize=12;html=1;endArrow=ERzeroToMany;startArrow=ERmandOne;rounded=0;entryX=1.014;entryY=0.357;entryDx=0;entryDy=0;entryPerimeter=0;" edge="1" parent="1" target="Ly-DDUZTZc76eZcosB0O-46">
          <mxGeometry width="100" height="100" relative="1" as="geometry">
            <mxPoint x="1396" y="355" as="sourcePoint" />
            <mxPoint x="1436.2" y="520" as="targetPoint" />
          </mxGeometry>
        </mxCell>
        <mxCell id="wi1ghn_I1hY8h-wvtkzA-17" style="edgeStyle=orthogonalEdgeStyle;rounded=0;orthogonalLoop=1;jettySize=auto;html=1;exitX=0.5;exitY=1;exitDx=0;exitDy=0;entryX=0.5;entryY=0;entryDx=0;entryDy=0;endArrow=ERzeroToMany;endFill=0;startArrow=ERmandOne;startFill=0;" edge="1" parent="1" source="wi1ghn_I1hY8h-wvtkzA-8" target="Ly-DDUZTZc76eZcosB0O-31">
          <mxGeometry relative="1" as="geometry" />
        </mxCell>
        <mxCell id="V0rouqVMcieKD_WNlHqg-12" value="" style="edgeStyle=entityRelationEdgeStyle;fontSize=12;html=1;endArrow=ERzeroToMany;startArrow=ERmandOne;rounded=0;entryX=0;entryY=0.25;entryDx=0;entryDy=0;" edge="1" parent="1">
          <mxGeometry width="100" height="100" relative="1" as="geometry">
            <mxPoint x="558.8" y="79.5" as="sourcePoint" />
            <mxPoint x="815" y="79.5" as="targetPoint" />
          </mxGeometry>
        </mxCell>
        <mxCell id="V0rouqVMcieKD_WNlHqg-14" value="Menu Category" style="swimlane;childLayout=stackLayout;horizontal=1;startSize=50;horizontalStack=0;rounded=0;fontSize=14;fontStyle=0;strokeWidth=2;resizeParent=0;resizeLast=1;shadow=0;dashed=0;align=center;arcSize=4;whiteSpace=wrap;html=1;" vertex="1" parent="1">
          <mxGeometry x="1398.8" y="500" width="160" height="120" as="geometry" />
        </mxCell>
        <mxCell id="V0rouqVMcieKD_WNlHqg-15" value="MenuCategoryId&lt;div&gt;MenuCategoryName&lt;/div&gt;&lt;div&gt;&lt;br&gt;&lt;/div&gt;" style="align=left;strokeColor=none;fillColor=none;spacingLeft=4;fontSize=12;verticalAlign=top;resizable=0;rotatable=0;part=1;html=1;" vertex="1" parent="V0rouqVMcieKD_WNlHqg-14">
          <mxGeometry y="50" width="160" height="70" as="geometry" />
        </mxCell>
        <mxCell id="V0rouqVMcieKD_WNlHqg-16" value="" style="fontSize=12;html=1;endArrow=ERoneToMany;startArrow=ERmandOne;rounded=0;exitX=0.45;exitY=-0.008;exitDx=0;exitDy=0;exitPerimeter=0;entryX=0.435;entryY=1.019;entryDx=0;entryDy=0;entryPerimeter=0;edgeStyle=orthogonalEdgeStyle;" edge="1" parent="1" target="Ly-DDUZTZc76eZcosB0O-21">
          <mxGeometry width="100" height="100" relative="1" as="geometry">
            <mxPoint x="1468" y="500" as="sourcePoint" />
            <mxPoint x="1468" y="401" as="targetPoint" />
          </mxGeometry>
        </mxCell>
        <mxCell id="IpPdQ_hB1jmn_op2HXhE-1" value="Places" style="text;html=1;align=center;verticalAlign=middle;resizable=0;points=[];autosize=1;" vertex="1" parent="1">
          <mxGeometry x="638.8" y="320" width="60" height="30" as="geometry" />
        </mxCell>
        <mxCell id="IpPdQ_hB1jmn_op2HXhE-3" value="Reviews" style="text;html=1;align=center;verticalAlign=middle;resizable=0;points=[];autosize=1;strokeColor=none;fillColor=none;" vertex="1" parent="1">
          <mxGeometry x="460" y="570" width="70" height="30" as="geometry" />
        </mxCell>
        <mxCell id="IpPdQ_hB1jmn_op2HXhE-4" value="Contains" style="text;html=1;align=center;verticalAlign=middle;resizable=0;points=[];autosize=1;strokeColor=none;fillColor=none;" vertex="1" parent="1">
          <mxGeometry x="945" y="760" width="70" height="30" as="geometry" />
        </mxCell>
        <mxCell id="IpPdQ_hB1jmn_op2HXhE-6" value="Has" style="text;html=1;align=center;verticalAlign=middle;resizable=0;points=[];autosize=1;strokeColor=none;fillColor=none;" vertex="1" parent="1">
          <mxGeometry x="530" y="450" width="40" height="30" as="geometry" />
        </mxCell>
        <mxCell id="IpPdQ_hB1jmn_op2HXhE-7" value="Payed using" style="text;html=1;align=center;verticalAlign=middle;resizable=0;points=[];autosize=1;strokeColor=none;fillColor=none;" vertex="1" parent="1">
          <mxGeometry x="775" y="518" width="90" height="30" as="geometry" />
        </mxCell>
        <mxCell id="IpPdQ_hB1jmn_op2HXhE-8" value="Contains" style="text;html=1;align=center;verticalAlign=middle;resizable=0;points=[];autosize=1;strokeColor=none;fillColor=none;" vertex="1" parent="1">
          <mxGeometry x="640" y="50" width="70" height="30" as="geometry" />
        </mxCell>
        <mxCell id="IpPdQ_hB1jmn_op2HXhE-9" value="Contains" style="text;html=1;align=center;verticalAlign=middle;resizable=0;points=[];autosize=1;" vertex="1" parent="1">
          <mxGeometry x="1015" y="330" width="70" height="30" as="geometry" />
        </mxCell>
        <mxCell id="IpPdQ_hB1jmn_op2HXhE-10" value="Contains" style="text;html=1;align=center;verticalAlign=middle;resizable=0;points=[];autosize=1;strokeColor=none;fillColor=none;" vertex="1" parent="1">
          <mxGeometry x="1315" y="325" width="70" height="30" as="geometry" />
        </mxCell>
        <mxCell id="IpPdQ_hB1jmn_op2HXhE-11" value="Contains" style="text;html=1;align=center;verticalAlign=middle;resizable=0;points=[];autosize=1;strokeColor=none;fillColor=none;" vertex="1" parent="1">
          <mxGeometry x="1470" y="440" width="70" height="30" as="geometry" />
        </mxCell>
        <mxCell id="IpPdQ_hB1jmn_op2HXhE-12" value="Has" style="text;html=1;align=center;verticalAlign=middle;resizable=0;points=[];autosize=1;strokeColor=none;fillColor=none;" vertex="1" parent="1">
          <mxGeometry x="1470" y="650" width="40" height="30" as="geometry" />
        </mxCell>
        <mxCell id="IpPdQ_hB1jmn_op2HXhE-14" value="Delivered by" style="text;html=1;align=center;verticalAlign=middle;resizable=0;points=[];autosize=1;strokeColor=none;fillColor=none;" vertex="1" parent="1">
          <mxGeometry x="884.8" y="-52" width="90" height="30" as="geometry" />
        </mxCell>
        <mxCell id="IpPdQ_hB1jmn_op2HXhE-15" value="Delivered by" style="text;html=1;align=center;verticalAlign=middle;resizable=0;points=[];autosize=1;strokeColor=none;fillColor=none;" vertex="1" parent="1">
          <mxGeometry x="885" y="198" width="90" height="30" as="geometry" />
        </mxCell>
        <mxCell id="ccCFFj__4ntV5N3kExwi-1" value="Has" style="text;html=1;align=center;verticalAlign=middle;resizable=0;points=[];autosize=1;strokeColor=none;fillColor=none;" vertex="1" parent="1">
          <mxGeometry x="490" y="220" width="40" height="30" as="geometry" />
        </mxCell>
        <mxCell id="IpPdQ_hB1jmn_op2HXhE-17" value="" style="edgeStyle=entityRelationEdgeStyle;fontSize=12;html=1;endArrow=ERoneToMany;startArrow=ERzeroToOne;rounded=0;exitX=1;exitY=0.5;exitDx=0;exitDy=0;entryX=0;entryY=0.75;entryDx=0;entryDy=0;" edge="1" parent="1" source="wi1ghn_I1hY8h-wvtkzA-4" target="Ly-DDUZTZc76eZcosB0O-45">
          <mxGeometry width="100" height="100" relative="1" as="geometry">
            <mxPoint x="1000" y="410" as="sourcePoint" />
            <mxPoint x="1100" y="310" as="targetPoint" />
          </mxGeometry>
        </mxCell>
      </root>
    </mxGraphModel>
  </diagram>
</mxfile>
